<?xml version="1.0" encoding="UTF-8"?>
<!DOCTYPE svg PUBLIC "-//W3C//DTD SVG 1.1//EN" "http://www.w3.org/Graphics/SVG/1.1/DTD/svg11.dtd">
<!-- Creator: CorelDRAW -->
<svg xmlns="http://www.w3.org/2000/svg" xml:space="preserve" width="4.58972in" height="7.33406in" version="1.1" style="shape-rendering:geometricPrecision; text-rendering:geometricPrecision; image-rendering:optimizeQuality; fill-rule:evenodd; clip-rule:evenodd"
viewBox="0 0 1809.77 2891.89"
 xmlns:xlink="http://www.w3.org/1999/xlink"
 xmlns:xodm="http://www.corel.com/coreldraw/odm/2003">
 <defs>
  <style type="text/css">
   <![CDATA[
    .fil0 {fill:#A53692}
   ]]>
  </style>
 </defs>
 <g id="Layer_x0020_1">
  <metadata id="CorelCorpID_0Corel-Layer"/>
  <path class="fil0" d="M1495.47 2748.86c52.4,-29.69 121.03,53.94 88.18,110.07 -11.81,20.17 -32.7,11.42 -53.81,20.03 8.84,-26.45 22.96,-34.77 13.52,-79.12 -5.69,-26.72 -21.37,-44.66 -47.89,-50.97zm-372.8 -2463.89c-2.49,-6.06 0.42,-5.3 -8.24,-12.39 1.47,16.39 -4.95,4.89 8.24,12.39 23.82,40.62 62.1,33.78 94.28,27.4 158.21,-31.32 175.93,25.04 228.11,-29.15 15.76,-16.37 50.66,-59.19 55.61,-81.27 1.15,-0.67 3.03,-2.9 3.48,-1.94l106.3 -140.2c13.12,-7.97 19.44,-16.31 31.2,-29.08 13.61,-14.78 13.92,-19.86 40.21,-20.15 7.6,16.91 7.52,20.81 8.3,42.84 1.67,47.23 4.48,-17.5 5.8,26.95 1.84,61.8 17.43,147.25 10.51,206.34l-7.78 96.68c-12,63.41 -30.47,120.09 -26.92,196.76 3.54,76.5 11.4,146.85 -16.91,203.64 -50.64,-2.34 -177.57,3.27 -207.16,20.28 31.95,1.47 178.33,-32.91 206.67,-10.24 -22.03,22.39 -44.15,6.88 -103.53,12.25l-79.31 8.23c-20.71,5.88 -7.78,-3.2 -17.54,10.1 22.22,-2.87 160.2,-23.41 183.98,-8.72 -14.61,20.58 -18.56,11.06 -82.27,11.03 -35.56,-0.02 -57.46,5.5 -94.1,5.55 7.01,12.86 1.85,7.75 28.08,5.85l131.58 -5.96c-4.7,19.39 -5.35,11.7 -15.14,27.38 -27.3,-5.23 -118.5,-21.56 -143.72,-0.21 34.24,-0.55 110.01,-8.11 137.45,11.28l-47.19 45.75c-6.83,10.85 -1.13,-2.39 -5.1,10.67l29.39 -24.87c33.89,16.3 19.79,33.55 47.82,107.52 13.12,34.63 24.5,61.86 37.95,93.54 124.67,293.53 140.22,318.25 69.46,644.53 -15.58,71.85 -33.08,371.5 -47.75,483.51 -10.2,77.84 -18.85,161.03 -24.66,238.22 -5.08,67.45 -31.74,188.18 5.72,240.78l7.71 2.28c1.01,0.17 2.96,0.68 4.26,0.86l26.23 1.46c103.95,5.34 80.51,120.85 67.33,139.71 -15.51,22.2 -37.44,20.58 -72.85,20.57 15.53,-22.22 29.7,-28.92 27.92,-71.4 -1.35,-32.1 -15.01,-57.47 -39.75,-67.36 10.36,17.15 23.79,28.1 28.09,51.57 12.57,68.59 -30.85,104.27 -95.98,78.89 -22.85,-8.9 -6.3,-2.12 -23.56,-18.84 14.54,-28.23 -0.72,-55.16 -6.01,-77.62 -25.06,-25.14 -23.51,-15.53 -49.63,-32.1 -0.74,-1.22 -1.4,-4.72 -1.62,-3.97l-10.45 -66.5c-2.92,-26.28 -4.24,-46.64 -4.3,-77.78 -0.24,-125.33 48.68,-193.24 50.02,-459.99 0.55,-110.07 5.98,-215.35 28.97,-309.86 11.34,-46.63 25.99,-85.36 42.46,-127.23 11.95,-30.39 43.79,-90.74 49.2,-121.7 -4.49,4.55 -3.06,2.47 -7.67,9.46l-21.12 44.86c-8.34,19.54 -17.99,41.75 -26,61.61 -124.47,308.96 -31.89,433.79 -104.47,755.48 -37.2,164.87 -7.12,231.14 -14.97,275.06 -2.42,13.52 -5.53,4.05 7.07,18.13 -22.3,3.3 -30.1,-1.4 -41.84,-8.68 -7,-36.12 -19.53,-33.85 -27.47,-115.13 -11.95,-122.43 -21.23,-314.31 -7.36,-428.94l18.14 -272.09c3.11,-47.24 1.9,-101.76 -5.14,-142.52 -9.62,-55.65 1.46,-81.85 -1.02,-138.13 -30.7,72.36 8.65,155.96 -3.31,270.43 -17.78,170.04 -31.59,547.68 -10.19,709.55 3.24,24.49 5.82,43.13 11.51,64.93 7.38,28.26 10.33,40.35 24.84,51.89 -6.48,14.99 3.75,0.11 -7.62,8.4 -2.35,1.71 -4.08,2.63 -6.64,4.11 -0.88,0.51 -2.94,1.32 -3.69,1.71 -0.76,0.4 -2.64,0.86 -3.81,1.59l32.72 5.85c9.35,12.2 56.37,41.94 38.36,98.13 -5.67,17.7 -11.37,28.46 -33.79,32.51 -6.28,1.14 -14.2,1.56 -20.65,1.68 -15.14,0.29 -27.51,-0.88 -41.74,-3.03 -26.55,-4 -50.38,-8.79 -79.6,-9.02 17.3,-49.45 31.52,0.1 1.71,-132.4 -44.33,-197.06 -43.93,-503.4 -96.78,-741.04 -14.39,-64.72 -54.56,-210.11 -90.32,-243.86l43.31 104.69c79.17,223.82 74.68,427.83 102.72,653.02 12.16,97.65 24,174.62 39.92,261.35 -54.55,-35.75 -75.16,-49.1 -164.19,-49.46 52.31,-98.64 47.77,-206.66 21.89,-317.66 -23.61,-101.27 -57.23,-196.07 -121.74,-256.14 -153.75,-143.15 -398.41,49.96 -392.23,262.55 18.48,-39.99 14.61,-159.92 122.56,-244.29 76.6,-59.86 179.54,-88.89 266.74,-9.93 82.78,74.96 143.07,305.54 135.17,423.03 -4.57,67.89 -18.27,96.5 -43.22,142.56 -55.85,0.06 -129.14,14.38 -154.01,43.3 -19.08,5.66 -22.56,8.94 -32.34,22.38l32.34 -22.38c32.61,-6.02 58.78,-26.71 105.13,-31.75 45.13,-4.91 83.93,-5.93 127.93,2.28 37.65,7.03 74.37,22.46 91.51,45.45 27.03,36.25 15.75,77.5 -23.39,88.6 44.2,-81.26 -31.89,-114.15 -64.28,-114.6 24.14,15.13 41.19,14.03 58.6,38.48 15.66,21.99 16.43,56.56 -6.4,74.46 -41.93,32.89 -391.69,6.51 -476.11,-13.54 -92.48,-21.96 -30.96,-53.11 -100.84,-205.96 -24.09,-52.68 -45.64,-84.29 -66.07,-142.15 -42.19,-119.49 -38.54,-233.54 -23.34,-370.49 49.86,-449.45 331.23,-774.13 343.98,-888.12 7.96,-71.2 11.64,-117.5 28.75,-179.45 6.39,-23.12 18.1,-58.76 20.52,-83.45 1.63,-16.59 -1.68,-33.64 5.93,-44.17 6.3,-8.72 8.86,-6.53 16.99,-7.98l13.54 -1.2c0.47,-0.06 2.01,0 2.85,-0.48l-26.24 -23.23c-19.94,-20.32 -2.09,-12.65 -28.42,-26.3l-6.24 -16.57 105.69 -13.09c4.99,-0.32 9.19,0.46 13.21,-0.61 10.61,-2.83 7.91,-3.15 13.81,-7.73 -26.99,0.13 -134.09,9.61 -153.11,17.47l-14.96 7.75c-0.92,0.49 -2.69,1.41 -4,2.18 44.95,-1.84 13.17,-9.54 45.6,10.6 -8.13,13.48 1.21,7.56 -17.13,11.37l14.13 3.41c7.64,1.35 -6.07,-6.61 13.48,2.03l0.45 38.1 -16.87 11.8c0.57,-0.25 2.33,-0.86 2.69,0.34 3.21,10.72 -0.02,-0.02 8.81,2.63l5.33 1.66c-0.83,52.39 -35.73,138.08 -47.37,226.37 -6.18,46.89 -3.55,79.08 -19.04,118.04 -10.7,26.93 -33.92,63.03 -48.38,88.52 -67.5,118.99 -129.74,233.05 -183.51,369.61 -75.55,191.84 -143.44,483.15 -91.86,699.28 18.47,77.4 52.5,134.89 82.98,195.58 -134.51,27.02 -133.56,31.7 -279.13,27.88 -159.1,-4.17 -336.58,-73.01 -360.07,-253.13 -17.94,-137.5 46.93,-253.88 20.88,-278.47 -8.9,-5.1 12.69,-7.33 -14.45,-2.63 -30.07,5.21 -62.45,71.39 -72.13,96.98 -55.29,146.11 -33.28,348.84 80.45,448.56 72.91,63.93 153.86,99.85 261.89,126.84 251.49,62.84 374.7,6.58 435.8,35.18 24.93,11.67 46.48,15.2 78.21,20.42 72.3,11.88 291.61,24.31 369.01,18.97 96.02,-6.62 53.25,-27.32 169.65,-4.41 34.74,6.84 94.2,4.41 130.31,-1.91 20.82,-3.64 23.63,-10.97 33.31,-14.4 10.56,-3.74 109.95,29.98 164.54,9.75 82.45,-30.56 72.9,-143.09 -6.7,-178.01 -13.02,-5.71 -22.67,-8.55 -38.18,-10.87 -7.88,-1.18 -13.76,-0.99 -20.1,-1.92 -113.72,-16.76 119.42,-202.81 50.97,-451.01 -9.18,-33.3 -36.23,-72.73 -35.91,-92.75 0.68,-42.67 9.17,-89.08 11.97,-130.23 5.37,-78.84 11.41,-184.74 25.31,-259.62 15.63,-84.19 37.48,-140.28 41.55,-238.5 10.13,-244.83 -124.26,-392.55 -169.21,-571.83 -5.26,-20.98 -0.53,-21.45 -1.25,-27.17 -0.05,-0.38 -0.24,-1.7 -0.35,-2.07 -4.06,-14.04 -11.25,-0.62 -10.47,-45.05 32.68,-12.15 94.76,23.22 131.56,27.3 -27.44,-19.14 -87.33,-27.02 -115.54,-37.76 19.71,-32.33 18.42,-22.82 66.96,-22.68l-44.69 -11.12c17.7,-17.93 29.04,-10.63 60.78,-11.08 -17.23,-8.45 -5.79,-1.65 -22.59,-4.73l-21.74 -5.8c6.91,-14.07 -5.25,-23.59 70.23,-15.68 27.1,2.84 54.7,9.3 84.78,10.89 -1.36,-0.78 -3.54,-3.11 -4.32,-1.82 -0.91,1.51 -5.62,-2.34 -8.77,-3.28 -39.74,-11.89 -103.04,-10.02 -122.31,-14.68 -0.49,-1.35 -0.77,-4.98 -0.81,-4.24l5.37 -39.75c5.42,-27.08 2.95,-129.64 2.88,-161.46 -0.2,-91.99 9.82,-116.87 24.92,-194.18 22.25,-113.88 18.92,-185.41 -0.65,-301.04 -7.12,-42.07 -4.32,-56.79 -29.25,-79.51 -24.71,5.48 -58.42,37.34 -66.21,59.81l-29.74 30.4c-19.62,25.63 -72.91,87.84 -80.04,111.74l-16.16 16.68c-107.75,148.27 -60.74,44.55 -265.41,85.06 -18.86,3.73 -35.46,11.59 -55.09,5.54 -20.25,-6.25 -18.94,-16.02 -41.34,-24.27zm-230.61 76.61c0.27,1.8 6.78,1.01 7.58,0.72 0.4,-0.14 10.14,10.4 2.75,-1.55 -0,-0.01 -12,-10.25 -10.33,0.82zm26.92 -239.77c-4.65,-20.19 -1.52,-14.08 -15.26,-23.38l15.26 23.38zm7.2 903.91l23.2 -16.81c-18.61,4.75 -16.08,1.83 -23.2,16.81zm-33.03 -785.55c40.28,2.31 10.86,2.85 22.81,-6.76l-19.98 4.1c-0.55,0.53 -1.8,1.88 -2.83,2.67zm290.08 674.26l-20.23 -21.28c4.1,17.5 2.79,15.22 20.23,21.28 26.77,35.17 106.54,12.98 125.85,-16.99 27.37,17.28 33.62,29.03 82.53,29.37 36.98,0.26 60.7,-14.02 72.62,-39.56 -10.74,6.21 -62.66,57.24 -125.68,19.74 -16.65,-9.9 -27.53,-31.49 -10.37,-50.61 7.97,-8.88 1.47,0.51 7.62,-8.91 10.13,-15.5 -0.29,-11.18 14.51,-23.81 18.76,-16.01 33.12,-6.91 35.66,-41.07 -21.42,-13.9 -45.21,-18.51 -82.06,-15.87 -33.92,2.43 -55.94,4.61 -70.18,27.06 12.98,27.36 16.68,18.42 38.4,31.8 19.46,11.99 1.46,-3.14 14.34,18.53 5.62,9.45 1.71,3.83 6.66,9.84 5.39,6.55 3.67,2.68 11.04,11.03 -0.32,34.69 -11.11,43.27 -41.35,51.99 -44.12,12.73 -42.47,5.16 -79.6,-2.55zm461.53 -762.18l21.75 -7.89c-19.25,-8.07 -3.39,-0.03 -17.33,-9.11l-4.42 17zm-696.71 0.63c-6.72,-17.77 -9.13,-18.4 -22.43,-27.39 7.35,17.81 9.3,19.03 22.43,27.39l5.53 16.65c1.19,0.64 3.11,0.18 3.61,1.83 0.5,1.64 2.88,1.51 3.53,1.92 1.66,1.03 9.5,6.33 9.71,6.5 6.81,20.52 24.44,33.13 33.18,52.32 17.13,4.47 8.22,-6.81 21.76,14.67 17.75,28.17 -4.81,41.31 -10.9,54.98 -4.94,11.09 -10.34,31.88 -14.81,45.41 -6.12,18.54 -7.96,29.28 -8.41,51.86 -26.38,14 -0.99,-6.33 -15.65,5.04 -14.91,11.56 11.16,-12.64 -3.14,4.31 -8.69,10.31 8.9,4.9 -3.7,3.3 -7.88,8.7 12.79,12.27 -20.86,1.59l-27.21 7.89c10.31,6.23 29.37,22.17 32.85,34.1 6.3,21.6 -1.98,-0.69 0.16,6.45 3.55,11.83 11.72,7.19 25.99,24.96 17.94,-105.45 160.17,-98.75 48.94,-239.04 -18.6,-23.46 -37.12,-51.66 -58.2,-67.84 -6.25,-16.41 -10.55,-18.63 -22.39,-26.9zm-60.55 21.25l17.03 1.11 -7.3 -21.66c-2.65,4.74 -1.08,1.65 -5.05,9.8 -0.63,1.28 -1.28,5.33 -4.67,10.75zm753.1 157.52l16.03 3.87c9.74,-14.32 5.93,-0.44 19.45,-18.15l-35.48 14.28zm-757.83 -299.64c8,13.81 9.74,15.15 27.01,25.78 -6.58,-13.35 4.49,-1.58 -9.53,-16.07 -7.48,-7.72 -7.23,-6.12 -17.47,-9.7 -33.82,-40.57 -42.74,21.89 -46.91,52.72 -36.94,273.07 52.13,315.07 78.46,528.99 5.06,41.12 10.12,66.52 21.43,104.46 7.44,24.95 19.45,72.76 43.05,86.74 -86.78,-204.61 -28.06,-157.52 -99.02,-364.62 -6.11,-17.84 -16.44,-41.19 -17.27,-57.14l-8.03 -65.82c-3.38,-19.7 -1.86,-5.77 -7.12,-2.15 -0.13,0.09 -1.09,1.02 -1.2,1.11 -0.1,0.08 -0.71,1.24 -1.2,1.04 1.68,-24.28 5.18,-33.88 3.02,-65.29l-6.02 43.02c-9.2,-31.61 2.27,-50.32 2.75,-57.38 1.24,-18.43 -1.59,-48.32 -1.43,-68.42l10.87 -137.89c12.44,-4.29 14.11,-1.92 28.62,0.63zm-33.92 1068.04l56.4 -53.59c-20.91,6.7 -46.86,34.44 -56.4,53.59zm214.04 -881.27c-6.17,-20.13 -22.79,-32.34 -36.61,-44.18 2.28,17.93 21.27,34.67 36.61,44.18 7.6,20.7 29.02,38.95 45.94,52.49 -8.22,-20.07 -27.45,-41.43 -45.94,-52.49zm-42.63 -46.24c-8.44,-25.04 -31.62,-43.81 -48.64,-58.01 5.91,21.68 31.33,42.83 48.64,58.01zm654.81 95.67c10.19,-6.46 3.86,-5.55 7.94,-12.32 -14.45,3.09 -21.62,5.79 -34.09,10.96l-3.49 -7.96c-10.65,3.13 -6.49,-2.28 -15,7.94 -10.55,12.67 -0.53,-0.47 -6.62,16.92 21.63,-7.75 29.59,-14.08 51.26,-15.54zm-794.43 34.53c27.92,-1.36 25.54,6 52.32,10.14 -3.95,-12.9 -4.62,-15.14 -12.52,-22.94 -20.59,-20.35 -1.12,-5 -17.94,-9.55l11.42 19.39c-3.81,-1.02 -16.39,-4.75 -16.41,-4.75 -17.7,0.85 -7.08,-2.45 -16.87,7.72zm494.62 485.57c-8.26,31.2 -20.69,16.05 -36.85,34.53 -16.47,18.83 0.72,31.01 -39.98,25.4 -39.91,-62.79 -32.76,-15.64 -54.63,-54.45 16.69,-19.39 106.87,-26.67 131.46,-5.48zm247.5 -362.93c-2.64,1.7 -7.19,6.64 -7.93,4.85 -1.1,-2.66 -6.53,1.11 -9.69,2.08 -1.22,-3.87 -3.09,-9.76 -4.33,-12.84l-5.06 -10.9c-0.39,-0.84 -1.17,-2.33 -1.52,-3.11 -0.33,-0.7 -1.01,-2.22 -1.31,-2.86l-6.08 -15.24c1.35,-12.8 -1.6,2.81 2.7,-7.61l3.57 -6.41c-11.63,-4.24 -15.56,-5.83 -21.67,-16.85l-25.31 -87.58c-0.18,-0.51 -0.67,-1.93 -0.82,-2.39l-0.93 -4.15c-0.09,-0.33 -0.27,-1.68 -0.36,-2.02 -0.1,-0.35 -0.41,-1.72 -0.52,-2.09 -0.13,-0.4 -0.67,-1.81 -0.82,-2.23l-4.26 -13.98c0.02,-0.79 0.23,-2.45 0.35,-3.28l27.4 -44c3.94,-6.13 6.95,-12.54 11.74,-19.4 0.38,-0.55 6.2,-8.1 7.22,-9.26 6,-6.72 2.89,-3.78 8.85,-7.93 2.42,-22.44 2,-5.1 -5.35,-12.02 -21.49,40.25 -93.63,117.48 -93.14,165.81 0.71,68.69 86.64,79.25 104.58,153.42 30.99,-44.19 27.04,-15.49 22.69,-40.01zm-237.97 237.6c-0.11,-0.41 -2.47,-15.83 -2.51,-17.49 -2.24,-96.93 103.37,-136.1 157.78,-104.35 11.13,6.49 4.84,-0.79 9.96,9.3 -67.37,-5.48 -62.05,-8.42 -120.07,18.99 9.47,5.33 11.11,-2.1 32.9,10.22 0.14,18.4 -0.82,35.57 -20.84,32.35 -13.45,-2.16 -15.42,-13.93 -19.73,-24.11l-3.3 -7.72c-27.96,46.84 -12.49,52.91 -27.66,98.49l-6.52 -15.67zm6.74 59.32c0.81,-1.11 1.63,-4.45 1.87,-3.68 4.58,14.87 -5.94,-38.51 36.54,-45.67 65.38,-11.03 79.05,8.46 114.83,-60.01 24.04,-46.01 23.38,-27.25 39.15,-49.17 -50.75,-67.62 -187.35,-58.33 -210.47,64.2 -5.51,29.21 -4.89,75.72 18.09,94.33zm-268.56 -125.67c-10.57,20.58 -0.61,13.55 -26.74,21.07 -12.27,-9.73 -9.56,-6.43 -16.58,-21.07 9.08,-19.51 2.88,-16.86 28.2,-21.58 11.9,11.09 8.71,6.02 15.12,21.58zm-82.13 -21.97c21.68,-29.5 82.71,-37.28 120.39,-15.94 47.81,27.07 55.14,72.29 54.95,125.81 -37.12,-26.29 16.65,-156.38 -175.33,-109.87zm-32.54 22.1c60.74,23.16 36.64,56.02 84.38,79.57 63.85,31.49 87.38,-31.79 116.54,47.66 0.32,0.88 0.84,2.72 1.58,3.92 27.4,-20.4 31.05,-122.16 -36.92,-170.93 -57.57,-41.31 -142.96,-11.25 -165.59,39.78zm749.82 2125.18c19.33,5.47 16.59,2.91 22.44,21.65l-22.44 -21.65zm-32.26 -16.6c-25.2,-0.23 -42.8,3 -60.26,-5.78 16.78,-10.86 41.63,-3.13 56.67,3.62 0.86,0.38 2.43,1.39 3.6,2.16zm-66.32 -108.44c0.47,-139.4 37.08,-302.95 38.74,-423.02 76.74,83.84 40.54,264.36 -12.45,376.57l-26.29 46.45zm-600.4 -1670.04c-1.08,0.3 -6.45,11.1 -11.43,-2.45 -6.35,-17.27 3.88,-15.01 4.43,-15.97 6.5,10.06 8.26,8.95 7,18.43zm529.57 -39.84c3.42,5.51 7.58,4.69 -0.02,16.41 -2.45,-3.13 -7.52,-3.08 0.02,-16.41z"/>
 </g>
</svg>
