<?xml version="1.0" encoding="UTF-8"?>
<!DOCTYPE svg PUBLIC "-//W3C//DTD SVG 1.1//EN" "http://www.w3.org/Graphics/SVG/1.1/DTD/svg11.dtd">
<!-- Creator: CorelDRAW -->
<svg xmlns="http://www.w3.org/2000/svg" xml:space="preserve" width="3.8561in" height="5.76298in" version="1.1" style="shape-rendering:geometricPrecision; text-rendering:geometricPrecision; image-rendering:optimizeQuality; fill-rule:evenodd; clip-rule:evenodd"
viewBox="0 0 1548.39 2314.08"
 xmlns:xlink="http://www.w3.org/1999/xlink"
 xmlns:xodm="http://www.corel.com/coreldraw/odm/2003">
 <defs>
  <style type="text/css">
   <![CDATA[
    .fil0 {fill:#A53692}
   ]]>
  </style>
 </defs>
 <g id="Layer_x0020_1">
  <metadata id="CorelCorpID_0Corel-Layer"/>
  <path class="fil0" d="M1076.96 2275.45c0.36,0.49 4.59,1.64 6.49,8.65 3.43,12.71 3.04,4.25 -2.06,12.39 -7.1,-10.13 -6.89,13.79 -4.43,-21.04zm-162.18 -1775.26l-16.63 -13.85c7.73,15.74 -0.57,9.91 16.63,13.85 10.04,15.58 25.65,19.88 46.16,26.4 26.03,8.28 34.39,9.22 64.19,5.67 -18.22,-5.51 -37.91,-5.67 -58.16,-11.78 -21.36,-6.45 -33,-15.12 -52.19,-20.29zm446.27 -142.6c-1.25,16.07 15.69,-5 5.52,-3.01 -8.34,1.64 -4.43,-10.94 -5.52,3.01zm-564.05 383.03l-22.52 -16.54 -50.08 -50.28c-4.05,-13.6 -0.36,-6.54 -8.78,-19.07 -0.91,-1.36 -3.8,-5.19 -4.8,-6.38 -4.47,-5.31 -5.05,-5.19 -8.6,-8.25 -1.63,-8.89 2.01,-0.98 -2.83,-13.52l-8.91 -16.02 0.84 -14.92c27.09,-7.97 -23.23,0.2 5.39,0.39 7.37,0.05 -4.37,4.24 5.6,-0.4 -0.65,-48.45 38.74,-72.1 39,-139.27 38.81,10.2 42.38,46.64 77.97,55.98 58.6,-16.84 61.77,-138.28 48.86,-210.84 -5.62,-31.57 -23.9,-78.58 -26.86,-107.7 -4.87,-48.03 21.68,-74.79 35.99,-105.71 -14.61,7.67 -16.68,8.42 -26.17,26.44 -4.03,7.65 -3.02,6.53 -6.58,15.49l-6.52 15.56c-0.37,0.77 -1.25,2.38 -1.97,3.51l-0.36 -60.49c-32.26,48.74 12.27,155.6 21.35,207.1 12.76,72.37 8.49,174.3 -37.74,205.34 -27.44,-7.73 -39.48,-36.24 -66.63,-50.71 -23.78,-12.68 -59.4,-23.15 -87.84,-34.96 -48.04,-19.96 -125.68,-56.29 -135.59,-104.18 0.38,-32.26 149.86,-184.95 191.38,-226.99l14.73 -18.7c254.07,-15.55 95.72,-15.23 266.66,-45.58 116.97,-20.77 173.58,9.65 257.52,51.82 -9.8,14.08 -12.11,12.78 -11.89,38.54 0.04,4.87 1.17,16.23 2.34,20.98l9.16 19.76c8.32,40.72 57.32,45.05 99.97,55.46 33.81,8.26 99.64,25.06 135.81,27.06 -27.84,14.55 -90.22,11.83 -83.78,59.77 3.3,24.59 52.46,57.88 69.87,75.57 -39.63,54.25 -141.41,123.59 -241.68,107.56 -34.45,-5.51 -73.63,-15 -81.76,25.93 39.6,11.4 51.96,-19.04 83.54,-16.76 136.94,9.87 115.17,-31.22 168.29,-42.8 63.1,-13.76 32.1,-30.08 79.28,-12.96 -6.59,-87.08 -21.69,-4.9 48.48,-116.98 7.74,72.76 -23.63,112.39 -60.58,142.46 -23.56,-6.91 13.27,-4.16 -14.91,-9.29 -33.02,38.44 -76.02,53.1 -141.22,59.26 -49.43,4.67 -115.62,-3.6 -178.42,28.42 31.01,0.48 69.4,-16.84 83.75,-11.85 -13.02,11.51 -17.37,21.74 -25.27,42.28 -32.95,85.59 -1.51,170.23 -7.29,187.64l-17.09 22.17c8.07,-4.51 9.37,-3.62 16.89,-6.9 -3.45,23.89 -3.46,21.91 -22.6,29.37 18.14,10.1 -9.28,-1.2 16.17,3.24l-6.13 67.96c17.45,-34.39 12.48,-63.71 23.8,-82.44 -0.62,-52.94 -12.93,-90.01 -11.22,-139.6 0.72,-20.98 6.5,-49.07 11.72,-66.13 6.42,-20.97 16.24,-36.49 21.02,-57.58 41,-18.61 81.89,-0.02 173.54,-20.94 21,14.44 15.31,24.92 50.19,21.24 23.71,-26.82 9.61,-31.54 21.75,-55.13 29.62,-22.65 41.41,-22.15 60.39,-62.59 20.46,-43.59 8.17,-59.86 14.01,-109.01 6.09,-51.32 6.5,-55.27 -45.82,-68.04 -26.38,-6.44 -79.01,-13.01 -100.52,-22.05l-2.83 -8.29c-1.43,-5.65 -1.72,-8.14 -3.04,-13.73 -8.66,-36.5 -93.25,-109.83 -106.54,-117.88 7.39,20.44 169.72,157.11 62.22,129.16 -71.89,-18.69 -23.25,-61.64 -70.77,-113.78 -19.75,-21.68 -59,-43.73 -90.17,-54.71 17.74,-14.52 31.34,-21.12 49.89,-11.49 1.12,0.58 2.42,1.62 3.46,2.29 1.03,0.66 2.29,1.83 3.23,2.52l9.01 7.86c5.88,17.64 15.39,25.07 29.33,33.5 -4.67,-12.2 -2.44,-9.37 -10.43,-18.89l-18.9 -14.6c-5.65,-23.54 -20.84,-33.02 -44.56,-23.87 -36.66,14.12 -11.12,22.98 -59.12,10.77 -100.19,-25.48 -187.48,2.63 -277.12,33.14 -33.25,11.32 -93.21,-9.79 -128.54,10.57l-6.24 4.87c-0.63,0.48 -2,1.7 -2.81,2.73 -23.73,6.66 -37.63,29.67 -54.17,46.25 -38.82,38.92 -113.22,119.9 -143.93,162.65 -34.31,47.76 -4.13,80.12 53,115.24 39.12,24.05 94.94,47.38 145.41,61.03 -2.86,72.83 -54.23,137.35 -80.42,192.77 -23.21,49.1 -20.12,85.73 -61.26,139.54 -13.28,17.37 -22.76,19.4 -30.31,42.22 -1.25,0.55 -3.11,0.23 -3.62,1.93 -0.5,1.69 -2.86,1.54 -3.54,2.02 -30.44,21.17 -85.17,101.65 -103.73,130.55 -89.81,139.77 -180.42,338.56 -243.95,492.24 -54.14,130.97 -192.27,499.2 -208.22,650.93 -3.7,35.21 11.09,57.52 11.88,77.12 0.95,23.71 -8.41,-3.68 -0.76,15.88 4.44,21.99 -2.1,-1.2 8.83,8.91 31.45,29.08 32.4,70.76 140.5,74.91 78.02,3 173.13,2.15 251.28,-1.12 64.55,-2.7 259.05,1.95 298.57,-12.18 39.5,-14.13 20.94,-28.28 58.13,-31.42 97.79,-8.26 34.63,-7.82 83.65,-17.47 7.77,40.44 -13.17,109.76 93.71,94.36 1.38,-0.2 142.19,5.37 162.7,-15.36 0.75,-1.13 1.52,-4.49 1.64,-3.72 0.84,5.36 5.71,-37.72 -20.51,-77.37 -14.17,-21.43 -37.37,-36.56 -62.52,-49.18 -45.03,-22.58 -63.95,-96.08 -77.28,-145.79 -18.03,-67.22 18.15,-47.7 49.56,-156.71 17.92,-62.21 9.78,-152.1 -30.85,-180.99 6.94,24.68 18.62,36.18 25.33,64.89 6.13,26.23 5.37,60.3 -0.41,87.9 -9.37,44.73 -32.62,103 -57.19,131.62 -2.04,-49.92 -27.16,-155.41 -30.8,-242.14 -2.61,-62.18 100.53,-129.62 114.55,-158.48 14.18,-0.59 16.13,29.27 30.6,68.65l79.83 238c8.18,27.69 15.31,52.03 20.86,85.08 5.26,31.3 -4.61,73.07 9.32,96.75 56.68,96.35 33.91,126.97 76.41,135.8l-20.05 -28.06c-8.78,-23.89 -15.28,-52.91 -26.51,-76.06 -17.83,-36.79 -26.58,-20.77 -25.99,-74.51 0.37,-33.58 -5.86,-59.92 -11.51,-89.03 -4.18,-21.52 -14.41,-63.13 -13.1,-78.29l-8.55 0c-20.79,-77.87 -92.84,-258.46 -95.97,-296.39l-15.36 18.06c-21.97,11.25 -32.43,26.86 -51.34,38.43 5.13,-16.39 6.28,-11.88 11.83,-28.42 -28.69,20.2 -52.99,75.1 -69.07,104.72l-8.94 14.89c-0.43,-52.09 -9.68,-119.59 -5.62,-174.85 1.81,-24.75 8.61,-27.29 10.94,-50.25l-4.96 6.16c-11.12,17.59 -9.34,17.74 -12.21,38.12 -18.35,130.27 24.15,485.04 78.45,597.32 6.55,13.54 13.88,27.59 22.07,39.3 27.09,38.76 83,22.68 101.17,88.86 -16.31,7.61 -5.57,-3.43 -22.24,16.8 -3.02,-23.37 -13.07,-40.15 -28,-49.68 -5.1,-22.38 -0.96,-13.75 -17.75,-23.33 3.32,10.25 1.36,8.55 7.25,16.08 5.71,7.29 3.72,3.09 10.49,7.25 3.46,15.8 9.79,24.36 16.26,38.46l-16.03 7.36c-0.67,0.37 -2.51,1.55 -3.07,1.87 -0.57,0.32 -2.15,1.18 -3.13,1.92 7.9,19.71 16.98,27 22.26,44.53l-75.56 -2.11c-1.2,-0.36 -3.07,-1.32 -4,-1.64 -10.97,-3.83 -7.21,-30.63 -16.89,-55.72 -6.71,-17.4 -14.12,-31.1 -26.13,-40.91l18.22 44.23c-2.23,1.31 -4.27,0.76 -4.81,2.52 -2.92,9.6 -6.1,-3.55 -18.67,14.57l22.06 38.88c-140.77,19.2 -58.9,-86.98 -116.6,-149.48l5.83 38.43c-45.3,-63.08 -40.53,-103.85 -64.1,-176.75l-123.12 -356.48c-67.41,-178.74 -13.02,-73.02 -14.7,-182.04l-11.49 39.83c-11.21,-17.04 2.24,-8.2 -15.9,-17.05l-5.91 28.92c-25.04,-54.58 -10.14,-62.12 -5.53,-117.86 -41.9,51.07 -2.15,118.76 3.21,137.57l69.68 191.64c19.21,54.89 37.37,110.52 56.2,166.78l54.78 168.09c-27.07,21.8 -67.35,29.9 -89.41,56.02l84.42 0.18c-1.23,-0.81 -3.34,-3.03 -4.04,-1.8l-17.41 -5.45c-8.49,-1.98 -14,-2.64 -22.99,-4.45 14.38,-11.79 33.08,-23.64 49.72,-33.33 12.09,18.14 2.93,27.53 14.42,51.88 10.53,22.31 19.8,25.13 26.85,53.86 -1.11,-0.95 -2.6,-4.09 -3.09,-3.11 -0.49,0.98 -2.42,-2.4 -3.1,-3.04l-18.34 -15.76c-9.34,28.75 -0.55,34.84 10.88,55.32l-44.25 2.59c-11.36,-39.26 -53.34,-78.05 -88.24,-87.2 -14,-3.67 -35.46,-5.28 -50.59,-10.15 24.8,-21.43 88.25,-57.76 105.22,-77.61 -25.62,6.11 -62.67,33.45 -85.08,48.47 -19.56,13.11 -64.53,46.99 -87.85,52.99 7.1,-12.37 6.93,-8.71 11.92,-22.96 2.43,-1.76 6.79,-3.58 12.34,-9.96 7.93,-9.11 5.94,-6.71 9.77,-18.12 1.08,-0.75 2.83,-3.16 3.27,-2.21l21.04 -23.73c20.72,-28.51 44.54,-60.61 55.28,-95.13 16.08,-51.68 8.37,-129.65 -11.41,-173.26 -3.75,40.14 23.62,85.96 0.66,168.11 -19.72,70.56 -61.32,90.87 -68.83,126.22 -6.36,3.39 -1.82,-4.34 -13.39,9.03 -6.48,7.48 -5.92,8.76 -8.72,19.05 -13.95,7.33 -5.63,3.12 -15.54,12.36 -17.92,16.71 3.6,6.59 -18.6,14.7l-111.89 -6.92c28.45,-18.51 138.99,-66.74 156.66,-132.22 86.78,-56.25 31.44,-277.78 4.08,-350.14 -44.3,-117.16 -149.13,-145.52 -249.51,-101.74 -19.75,8.61 -23.89,9.31 -33.29,22.56 -19.98,5.06 -12.81,2.08 -23.1,16.7l23.1 -16.7c41.65,-11.04 88.56,-51.08 168.63,-24.12 108.45,36.53 132.92,173.27 146.95,276.62 17.04,125.54 -28.17,140.26 -36.85,176.83l-6.59 4.51c-32.62,26.28 -42.87,55.43 -113.35,98.47 -79.57,48.59 -83.76,16.48 -185.85,27.25 21.74,6.21 233.44,21.59 261.1,20.58 62.27,-2.29 47.58,-37.41 104.73,-27.5 60.68,10.52 54.65,24.22 95.89,49.66 -7.35,3.8 -17.85,-5.6 -32.05,15.23 17.63,13.57 21.45,8.09 37.42,18.01 -17.01,42.14 -73.85,42.45 -127.89,43.64 -57.47,1.27 -115.47,0.78 -172.99,0.78 -128.14,-0.01 -336.34,25.71 -393.83,-41.15 -27.82,-32.35 -17.38,-41.95 -23.13,-53.7 -3.42,-6.98 -18.66,9.26 -18.51,-61.09 0.16,-72.55 67.05,-281.87 90.92,-350.14 75.62,-216.34 203.08,-536.02 317.7,-730.83 34.12,-57.99 64.77,-106.07 105.08,-156.97 12.74,-16.09 31.78,-31.01 39.81,-49.44l6.23 -4.68c22.56,-20.14 34.46,-37.36 49.09,-63.48l5.3 11.66c-10.95,13.57 -10.43,15.44 -12.2,38.4 1.28,-1.59 11.14,1.19 12.2,-38.4 0.76,-1.1 1.92,-4.14 2.19,-3.36l23.5 -76.9c9.23,-30.05 26.41,-55.87 30.85,-80.71l9.66 2.83c0.41,9 -0.48,8.7 2.52,16.47 9.47,24.61 0.46,4.1 9.22,13.08 4.45,19.89 8.49,24.13 22.18,33.7 7.2,19.67 30.54,43.53 50.08,50.28 9.73,13.95 3.02,11.01 22.52,16.54 8.05,11.32 1.35,7.44 16.98,10.93 12.81,17.42 50,32.43 70.39,41.12 25.17,10.72 61.88,25.8 92.24,25.82l-7.4 -4.24c-23.08,-9.39 -38.53,-9.05 -75.55,-25.31 -23.12,-10.16 -59.6,-32.43 -79.68,-37.4 -7.83,-10.61 -1.72,-7.31 -16.98,-10.93zm540.65 -329.03c1.67,11.52 9.55,7.21 7.32,1.41 -3.18,-8.28 -8.97,-12.81 -7.32,-1.41zm-278.51 -301.08c-14.99,4.13 -8.81,0.54 -16.52,12.02 14.85,-4.88 9.11,-1.98 16.52,-12.02 32.34,-3.05 12.99,-11.26 38.65,5.23 -7.39,-26.56 -25.08,-19.42 -38.65,-5.23zm379.42 2068.66c-4.55,-15.88 0.77,-8.43 -12.4,-16.52 3.79,11.63 1.34,5.42 5.85,12 0.45,0.65 2.73,3.36 3.1,2.5 0.37,-0.86 2.32,1.31 3.45,2.02l6.36 33.63c-25.87,8.82 30.6,-4.99 -14.98,-0.42 -0.41,0.04 -2.06,0.08 -2.92,0.58 8.31,19.84 11.75,18.35 23.54,33.46 -1.33,0.83 -3.5,0.13 -4.27,1.98l-31.43 7.07c-6.08,0.05 -11.35,-0.59 -16.74,-2.03 -10.61,-2.84 1.4,0.71 -8.06,-2.89 -1.1,-0.42 -3.05,-1.45 -3.93,-1.82 -33.96,-14.19 -4.67,-90.69 -83,-96.87 32.28,24.11 30.93,7.57 51.19,49.95 -0.74,0.42 -2.17,-0.17 -2.42,0.78 -5.92,22.27 4.36,-7.52 -14.1,6.37l10.72 15.8c9.86,6.78 7.45,1.82 11.53,15.89l-11.53 -15.89c-20.5,-11.61 -0.64,-5.03 -22.03,-12.67 5.79,23.27 15.05,19.92 28.07,39.89 -93.57,2.87 -72.49,-32.83 -100.25,-71.42 0.64,40.43 23.3,71.66 58.17,80.32l125.34 1.88c51.17,-6.63 41.36,-48.76 23.76,-84.11 -17.13,-34.41 -37.04,-48.53 -75.72,-63.84 -108.37,-42.92 -98.01,-296.09 -117.01,-440.6 -48.12,-365.96 8.59,-271.99 61.35,-456.22 32.03,-111.84 -12.85,-236.05 -60.92,-330.58 -10.56,-20.78 -35.5,-72.09 -54.22,-85.24 11.55,44.9 114.43,157.9 112.77,334.5 -1.55,164.79 -102.44,182.31 -83.77,367.29 14.97,148.3 13.89,474.34 90.35,578.65 22.84,31.16 29.69,30.59 64.89,46.71 24.59,11.27 47.61,33.4 55.54,62.14l-9.88 -7.49c-0.68,-0.52 -2.6,-1.94 -3.22,-2.41 -0.61,-0.46 -2.12,-1.59 -3.17,-2.39zm-702.62 -1516.7c-4.72,-15.23 -1.55,-8.83 -12.75,-16.64 5.28,14.57 0.46,9.29 12.75,16.64zm55.42 50.29l-20.92 -19.07c8.38,16.37 1.11,12.82 20.92,19.07 9.68,13.89 13.41,17.47 33.41,22.41 21.65,27.56 134.98,65.33 180.53,67.8l-49.52 -14.63c-17.2,-4.59 -30.17,-9.59 -45.96,-15.68 -30.24,-11.66 -60.43,-32.06 -85.05,-37.5 -6.48,-8.99 -2.19,-6.15 -14.01,-13.92 -12.44,-8.18 -6.08,-4.7 -19.4,-8.49zm-362.69 1382.03l-22.68 16.4c23.45,-4.79 14.57,-0.41 22.68,-16.4 33.78,-17.63 86.6,-104.13 88.98,-160.66 -22.19,36.54 -17.01,61.27 -60.84,122.73 -10.74,15.06 -20.24,19.74 -28.14,37.93zm537.85 -416.21c-7.91,-16.14 -3.69,-12.08 -19.49,-19.78 10.3,20.26 0.01,9.11 19.49,19.78zm-146.59 -1065.81l-8.96 -31.86c-1.99,10.86 -4.58,6.34 -0.73,18.09 6.69,20.43 4.24,7.62 9.69,13.76zm150.57 60.23c-5.42,-18.12 -5.94,-17.63 -17.69,-27.94 2.49,10.37 1.17,10.84 5.64,17.78 11.48,17.81 2.99,4.62 12.04,10.16 3.89,18.28 13.87,29.63 27.76,41.05l-18.72 -33.41c-6.81,-7.3 -5.53,-4.92 -9.04,-7.64zm-127.79 19.65c-8.34,-32.05 -11.25,-24.59 -18.89,-31.95 2.57,11.12 1.35,11.79 5.78,19.13 12.18,20.17 2.5,4.4 13.11,12.82zm-592.88 946c6.59,-4.02 10.34,-5.38 16.62,-11.62 12.31,-12.22 6.27,-5.79 12.83,-19.37 -20.69,9.27 -20.3,10.12 -29.45,30.99zm853.72 -1437.89c-11.58,-8.61 -7.47,-3.16 -11,-18.64 10.71,9.33 7.3,2.27 11,18.64zm-15.38 -23.52c-17.23,-5.01 -7,3.38 -17.32,-10.3 14.36,3.29 8.62,0.2 17.32,10.3zm-82.91 37.2c23.03,-7.03 42.44,6.17 64.89,6.14 35.67,-0.05 29.12,-9.65 72.67,-2.93 -0.93,-1.09 -2.5,-4.09 -2.98,-3.11l-12.09 -11.19c-21.85,-20.94 -11.58,-21.98 -39.45,-48.3 -40.64,3.06 -41.2,21.96 -66.54,40.84 -13.69,10.2 -12.88,-1.29 -16.51,18.55zm438.58 302.93c-16.14,-3.64 -22.09,-9.26 -33.39,-16.53 11.65,-14.66 33.54,-25.71 48.1,-36.93 1.67,23.58 -5.28,38.37 -14.71,53.46zm-5.28 -206.44c-6.36,-14.47 -4.44,-24.92 -10.7,-37.53 34.78,-28.65 110.75,-40.38 110.79,-12.39 0.02,17.36 -3.2,24.96 -6.62,38.61l-4.67 -30.35c-20.22,12.68 -4.52,-9.16 -12.15,35.44 -2.36,13.8 0.8,3.65 -4.25,11.69 -9.61,-21.37 -0.6,-27.75 -11.27,-44.48 -16.89,14.35 -5.6,1.85 -13.03,26.4 -6.97,23.04 -1,13.14 -15.35,23.86 6.92,-22.49 15.58,-29.17 6.77,-50.24 -40.92,5.61 -10.31,25.04 -39.51,38.99zm-179.42 -159.9c-0.42,-28.45 -12.17,-40.61 0.66,-68.73 23.5,6.69 26.56,20.71 33.44,46.37 -13.02,-9.99 -14.56,-13.94 -17.82,-4.83 -0.13,0.35 -0.94,1.94 -1.08,2.4l-1.16 5.85c-5.88,19.86 5.82,19.76 -14.04,18.94zm-177.15 2101.68c12.78,10.84 12.5,12.85 16.22,32.83 -13.3,-11.18 -13.26,-10.65 -16.22,-32.83z"/>
 </g>
</svg>
